<svg width="143" height="92" viewBox="0 0 143 92" fill="none" xmlns="http://www.w3.org/2000/svg">
<g clip-path="url(#clip0)">
<path opacity="0.3" d="M106.83 91.88H43.28V8.81H106.83V91.88ZM48.28 86.88H101.83V13.81H48.28V86.88Z" fill="white"/>
<path d="M0 72.24V63.86H3.77C4.11199 63.8632 4.45065 63.9276 4.77 64.05C5.06649 64.1659 5.33309 64.347 5.55 64.58C5.77168 64.8139 5.93899 65.0939 6.04 65.4C6.26665 66.0885 6.26665 66.8315 6.04 67.52C5.93888 67.823 5.77149 68.0997 5.55 68.33C5.33309 68.563 5.06649 68.7441 4.77 68.86C4.45187 68.9866 4.11241 69.0511 3.77 69.05H1.58V72.24H0ZM1.58 67.68H3.58C3.84359 67.695 4.10241 67.6051 4.3 67.43C4.39381 67.3404 4.46666 67.2312 4.51334 67.1102C4.56001 66.9892 4.57936 66.8594 4.57 66.73V66.18C4.578 66.0508 4.55802 65.9213 4.51142 65.8005C4.46482 65.6797 4.39271 65.5704 4.3 65.48C4.10086 65.3085 3.84221 65.2223 3.58 65.24H1.58V67.68Z" fill="white"/>
<path d="M20.14 72.24L19.46 70.1H16.46L15.8 72.24H14.22L17 63.86H19L21.78 72.24H20.14ZM18 65.3H17.94L16.87 68.75H19.08L18 65.3Z" fill="white"/>
<path d="M33.66 72.38C33.0283 72.4023 32.4006 72.272 31.83 72C31.3394 71.7531 30.9014 71.4135 30.54 71L31.61 70C31.8907 70.3159 32.2304 70.5741 32.61 70.76C32.982 70.9352 33.3888 71.024 33.8 71.02C34.1934 71.0509 34.5845 70.9371 34.9 70.7C35.0257 70.5987 35.125 70.4685 35.1894 70.3205C35.2539 70.1724 35.2815 70.011 35.27 69.85C35.2774 69.6014 35.1918 69.3589 35.03 69.17C34.7752 68.9554 34.4615 68.8229 34.13 68.79L33.34 68.67C31.67 68.41 30.83 67.6 30.83 66.24C30.8292 65.8956 30.9008 65.5549 31.04 65.24C31.1808 64.9366 31.3895 64.6698 31.65 64.46C31.9491 64.2321 32.2883 64.0625 32.65 63.96C33.063 63.8429 33.4907 63.7856 33.92 63.79C34.4857 63.7754 35.0481 63.8811 35.57 64.1C36.0092 64.3117 36.3954 64.6193 36.7 65L35.62 66C35.409 65.7463 35.1509 65.5357 34.86 65.38C34.5122 65.2088 34.1274 65.1264 33.74 65.14C33.3878 65.1208 33.0383 65.2117 32.74 65.4C32.6282 65.4825 32.5386 65.5915 32.4793 65.7171C32.4199 65.8428 32.3927 65.9812 32.4 66.12C32.3892 66.2495 32.4079 66.3797 32.4546 66.501C32.5014 66.6222 32.575 66.7313 32.67 66.82C32.9365 67.0003 33.2411 67.1167 33.56 67.16L34.34 67.3C35.0323 67.3807 35.6858 67.6623 36.22 68.11C36.4269 68.3257 36.587 68.5818 36.6902 68.8623C36.7934 69.1428 36.8376 69.4416 36.82 69.74C36.8257 70.1107 36.7542 70.4785 36.61 70.82C36.4734 71.1457 36.2649 71.4363 36 71.67C35.7057 71.9144 35.3658 72.0979 35 72.21C34.5653 72.3377 34.1129 72.3951 33.66 72.38Z" fill="white"/>
<path d="M48.88 72.38C48.2483 72.4023 47.6206 72.272 47.05 72C46.5594 71.7531 46.1214 71.4135 45.76 71L46.83 70C47.106 70.3211 47.4468 70.5801 47.83 70.76C48.1974 70.9257 48.597 71.0077 49 71C49.3967 71.0324 49.7915 70.9186 50.11 70.68C50.2315 70.5751 50.3278 70.4443 50.3918 70.2971C50.4559 70.15 50.486 69.9904 50.48 69.83C50.4874 69.5814 50.4018 69.3389 50.24 69.15C49.9852 68.9354 49.6715 68.8029 49.34 68.77L48.55 68.65C46.84 68.37 46 67.56 46 66.2C45.9992 65.8556 46.0708 65.515 46.21 65.2C46.3508 64.8966 46.5595 64.6298 46.82 64.42C47.1191 64.1921 47.4583 64.0225 47.82 63.92C48.2024 63.8 48.5994 63.7327 49 63.72C49.5803 63.6887 50.1604 63.7843 50.7 64C51.1718 64.2089 51.5867 64.5278 51.91 64.93L50.83 65.93C50.6204 65.6788 50.3661 65.4686 50.08 65.31C49.74 65.1624 49.3699 65.0973 49 65.12C48.6479 65.1021 48.2988 65.1929 48 65.38C47.8895 65.4637 47.8009 65.5729 47.7417 65.6983C47.6825 65.8236 47.6544 65.9615 47.66 66.1C47.6481 66.2305 47.6673 66.362 47.7159 66.4836C47.7646 66.6053 47.8414 66.7137 47.94 66.8C48.2049 66.9834 48.5103 67.1 48.83 67.14L49.61 67.28C50.3017 67.3629 50.9546 67.6442 51.49 68.09C51.6969 68.3057 51.8569 68.5619 51.9602 68.8423C52.0634 69.1228 52.1076 69.4216 52.09 69.72C52.0957 70.0907 52.0242 70.4585 51.88 70.8C51.7434 71.1257 51.5349 71.4163 51.27 71.65C50.975 71.8933 50.6353 72.0767 50.27 72.19C49.8208 72.3318 49.3508 72.396 48.88 72.38V72.38Z" fill="white"/>
<path d="M62.3 63.24C62.5608 63.2195 62.8193 63.3021 63.02 63.47C63.0937 63.549 63.1511 63.6418 63.1889 63.743C63.2266 63.8443 63.244 63.952 63.24 64.06V64.28C63.2396 64.503 63.2093 64.725 63.15 64.94C63.0868 65.1622 62.9996 65.3767 62.89 65.58C62.7788 65.7885 62.6482 65.986 62.5 66.17C62.3486 66.3482 62.1812 66.5122 62 66.66H61C61.2409 66.4394 61.4587 66.1948 61.65 65.93C61.8303 65.6859 61.9657 65.4116 62.05 65.12C61.9508 65.1091 61.8547 65.0788 61.7671 65.0307C61.6796 64.9827 61.6025 64.9179 61.54 64.84C61.4384 64.6859 61.3861 64.5045 61.39 64.32V64.06C61.386 63.952 61.4034 63.8443 61.4411 63.743C61.4789 63.6418 61.5363 63.549 61.61 63.47C61.803 63.3095 62.0493 63.2274 62.3 63.24V63.24Z" fill="white"/>
<path d="M73 72.24V63.86H76.77C77.1121 63.8624 77.4509 63.9267 77.77 64.05C78.0694 64.1657 78.3393 64.3468 78.56 64.58C78.7782 64.8165 78.9451 65.0957 79.05 65.4C79.2766 66.0885 79.2766 66.8315 79.05 67.52C78.9451 67.8213 78.7782 68.0972 78.56 68.33C78.3393 68.5632 78.0694 68.7442 77.77 68.86C77.4521 68.9876 77.1125 69.0521 76.77 69.05H74.63V72.24H73ZM74.59 67.68H76.59C76.8536 67.695 77.1124 67.6051 77.31 67.43C77.4004 67.3383 77.4703 67.2285 77.5151 67.1079C77.5599 66.9872 77.5786 66.8584 77.57 66.73V66.18C77.5774 66.0517 77.5581 65.9232 77.5133 65.8027C77.4686 65.6823 77.3994 65.5724 77.31 65.48C77.1109 65.3085 76.8522 65.2223 76.59 65.24H74.59V67.68Z" fill="white"/>
<path d="M88.78 72.24V63.86H90.36V70.86H93.66V72.26L88.78 72.24Z" fill="white"/>
<path d="M104.18 63.86V69C104.144 69.5214 104.277 70.0406 104.56 70.48C104.912 70.7948 105.368 70.9689 105.84 70.9689C106.312 70.9689 106.768 70.7948 107.12 70.48C107.403 70.0406 107.536 69.5214 107.5 69V63.86H109.06V68.86C109.069 69.3956 109.009 69.9301 108.88 70.45C108.786 70.863 108.594 71.2472 108.32 71.57C108.054 71.8754 107.707 72.1005 107.32 72.22C106.34 72.5017 105.3 72.5017 104.32 72.22C103.934 72.0968 103.589 71.8723 103.32 71.57C103.053 71.2439 102.865 70.8606 102.77 70.45C102.65 69.9287 102.593 69.3949 102.6 68.86V63.86H104.18Z" fill="white"/>
<path d="M125.33 66.23L124.68 67.56L122.97 70.73L121.25 67.56L120.6 66.23V72.23H119V63.86H120.79L122.94 67.96L125.06 63.86H126.78V72.24H125.28L125.33 66.23Z" fill="white"/>
<path d="M136.84 72.24V63.86H142.36V65.27H138.42V67.27H141.9V68.67H138.42V70.81H142.36V72.21L136.84 72.24Z" fill="white"/>
<path d="M67.52 49.48L69.86 44.28C71.5227 44.1307 73.1946 44.1139 74.86 44.23C74.86 44.23 72.86 42.86 71.75 43.15C72.7344 42.915 73.7389 42.7743 74.75 42.73C76.24 42.73 78.93 40.6 78.93 40.6C78.93 40.6 77.83 41.48 75.12 41.22L74 40.91C74 40.91 81.26 38.91 83.61 33.56L80.06 35.26C80.06 35.26 82.48 34.91 84.72 29.46C84.72 29.46 91.43 20.01 92.81 15.54L90.71 14.15H92.81L98.26 8.88C98.26 8.88 100.91 6.36 100.13 1.05C99.72 -1.76 93.25 1.94 93.25 1.94C93.25 1.94 89.61 5.55 87.25 7.42L87.48 10.48L85.4 8.78C80.4558 13.216 76.0882 18.2555 72.4 23.78C70.47 26.66 71.47 32.43 71.47 32.43C71.47 32.43 70.47 32.28 70.47 26.66C70.47 26.66 68.47 30.73 69.61 38.21C69.61 38.21 67.97 37.95 67.26 34.21C67.26 34.21 66.91 38.73 68.48 41.57C67.8598 40.5868 66.8924 39.8728 65.77 39.57C66.825 40.9282 67.784 42.3584 68.64 43.85L67.54 46.58L67.52 49.48Z" fill="white"/>
</g>
<defs>
<clipPath id="clip0">
<rect width="142.36" height="91.88" fill="white"/>
</clipPath>
</defs>
</svg>
